HIERARCHY
ROOT RootJoint
{
    OFFSET   0.000000   0.000000   0.000000
    CHANNELS 6 Xposition Yposition Zposition Xrotation Yrotation Zrotation
    JOINT pelvis_lowerback
    {
        OFFSET   0.000000   0.093605   0.000000
        CHANNELS 3 Xrotation Yrotation Zrotation
        JOINT lowerback_torso
        {
            OFFSET   0.000000   0.100000   0.000000
            CHANNELS 3 Xrotation Yrotation Zrotation
            JOINT torso_head
            {
                OFFSET   0.000000   0.282350   0.000000
                CHANNELS 3 Xrotation Yrotation Zrotation
                End Site
                {
                    OFFSET   0.000000   0.192650   0.000000
                }
            }
            JOINT rTorso_Clavicle
            {
                OFFSET  -0.001000   0.157500   0.000000
                CHANNELS 3 Xrotation Yrotation Zrotation
                JOINT rShoulder
                {
                    OFFSET  -0.117647   0.000000   0.000000
                    CHANNELS 3 Xrotation Yrotation Zrotation
                    JOINT rElbow
                    {
                        OFFSET  -0.245000   0.000000   0.000000
                        CHANNELS 3 Xrotation Yrotation Zrotation
                        JOINT rWrist
                        {
                            OFFSET  -0.240000   0.000000   0.000000
                            CHANNELS 3 Xrotation Yrotation Zrotation
                            End Site
                            {
                                OFFSET  -0.116353  -0.002500   0.000000
                            }
                        }
                    }
                }
            }
            JOINT lTorso_Clavicle
            {
                OFFSET   0.001000   0.157500   0.000000
                CHANNELS 3 Xrotation Yrotation Zrotation
                JOINT lShoulder
                {
                    OFFSET   0.117647   0.000000   0.000000
                    CHANNELS 3 Xrotation Yrotation Zrotation
                    JOINT lElbow
                    {
                        OFFSET   0.245000   0.000000   0.000000
                        CHANNELS 3 Xrotation Yrotation Zrotation
                        JOINT lWrist
                        {
                            OFFSET   0.240000   0.000000   0.000000
                            CHANNELS 3 Xrotation Yrotation Zrotation
                            End Site
                            {
                                OFFSET   0.116353  -0.002500   0.000000
                            }
                        }
                    }
                }
            }
        }
    }
    JOINT rHip
    {
        OFFSET  -0.100000  -0.051395   0.000000
        CHANNELS 3 Xrotation Yrotation Zrotation
        JOINT rKnee
        {
            OFFSET   0.000000  -0.410000   0.000000
            CHANNELS 3 Xrotation Yrotation Zrotation
            JOINT rAnkle
            {
                OFFSET   0.000000  -0.390000   0.000000
                CHANNELS 3 Xrotation Yrotation Zrotation
                JOINT rToeJoint
                {
                    OFFSET   0.000000  -0.050000   0.130000
                    CHANNELS 3 Xrotation Yrotation Zrotation
                    End Site
                    {
                        OFFSET  -0.010000   0.002000   0.060000
                    }
                }
            }
        }
    }
    JOINT lHip
    {
        OFFSET   0.100000  -0.051395   0.000000
        CHANNELS 3 Xrotation Yrotation Zrotation
        JOINT lKnee
        {
            OFFSET   0.000000  -0.410000   0.000000
            CHANNELS 3 Xrotation Yrotation Zrotation
            JOINT lAnkle
            {
                OFFSET   0.000000  -0.390000   0.000000
                CHANNELS 3 Xrotation Yrotation Zrotation
                JOINT lToeJoint
                {
                    OFFSET   0.000000  -0.050000   0.130000
                    CHANNELS 3 Xrotation Yrotation Zrotation
                    End Site
                    {
                        OFFSET   0.010000   0.002000   0.060000
                    }
                }
            }
        }
    }
}
MOTION
Frames: 12
Frame Time:   0.008333
 -2.747374   0.530738   4.665165 -39.772927 -17.362299  -3.984708  50.211159  -0.048094  -3.428929 -10.638254  -1.121897  -0.520149   4.517295   3.242770   0.572822 -13.036953  17.559571 -20.772962 -25.775362  26.449322   5.989039   0.040146  54.956246  -0.015747   1.486683   6.052227 -11.406933  -9.105502 -15.623835  19.613051 -22.102254  -5.128570   2.039459   0.001418 -29.314140  -0.004507   1.551714  -5.254644  16.468900 -35.408154   0.620110  -8.821140 142.484524  -0.000058   0.000696   6.776642  -3.564532   5.398214 -25.936500  -0.042310  -0.002908 -53.784077   4.661551   9.607101 105.013568   0.015096  -0.009333  -6.612670   7.855899  -3.919595   1.103008  -0.000643  -0.000496
 -2.749422   0.533892   4.670636 -40.027893 -16.941508  -4.639412  50.325978   0.077173  -3.166319 -10.631847  -1.027029  -0.681500   4.328404   3.030277   0.741685 -13.232297  16.683385 -20.262479 -26.549465  25.427647   6.023246   0.038446  54.459342  -0.017038   1.354128   6.163682 -11.595397  -9.281998 -15.392367  19.175003 -21.930784  -5.389416   2.312563  -0.001535 -27.952142  -0.001255   1.402562  -5.069612  16.523250 -37.305002   1.086287  -8.746383 141.326077  -0.003492   0.007993   5.481480  -3.932712   5.436766 -23.835894  -0.030396  -0.012690 -52.297581   4.771282   9.581382 105.560015   0.014840  -0.008103  -7.128508   7.708475  -3.569202   1.149473  -0.000490  -0.000438
 -2.751273   0.536432   4.675906 -40.268056 -16.422995  -5.326369  50.487619   0.160242  -2.818409 -10.590222  -0.994636  -0.773741   4.148196   2.824935   0.897808 -13.457008  15.786881 -19.756058 -27.275500  24.388009   6.018598   0.036550  53.958798  -0.017501   1.198772   6.154161 -11.891691  -9.450619 -15.171096  18.744913 -21.773165  -5.613477   2.559085  -0.004769 -26.661740   0.000594   1.219007  -4.778763  16.597892 -39.362489   1.630978  -8.742787 139.625626  -0.009312   0.019325   4.222286  -4.288269   5.459754 -21.996290  -0.021308  -0.020480 -50.783306   4.869753   9.601637 106.083832   0.014943  -0.006840  -7.616994   7.567303  -3.242124   1.140256  -0.000404  -0.000349
 -2.753103   0.538232   4.681104 -40.502884 -15.804811  -6.033806  50.667956   0.192614  -2.419400 -10.517057  -1.021267  -0.798917   3.989578   2.632706   1.046356 -13.677133  14.891582 -19.261848 -27.944284  23.365992   5.995230   0.034289  53.470856  -0.017117   1.026232   6.031980 -12.205797  -9.601379 -14.968236  18.338483 -21.623001  -5.820897   2.781854  -0.007727 -25.454347   0.001751   1.033688  -4.467091  16.650977 -41.434976   2.183628  -8.778787 137.784828  -0.016350   0.030158   3.032179  -4.622540   5.473639 -20.315486  -0.013715  -0.026034 -49.274152   4.958165   9.669511 106.601849   0.015416  -0.005575  -8.070395   7.433232  -2.938045   1.138073  -0.000327  -0.000281
 -2.754990   0.539245   4.686276 -40.728294 -15.099192  -6.749331  50.856298   0.181153  -1.987007 -10.424106  -1.097015  -0.772220   3.847210   2.452562   1.186438 -13.881943  14.013155 -18.781923 -28.558558  22.376694   5.961915   0.031812  53.002548  -0.016163   0.844846   5.840171 -12.505622  -9.732968 -14.790934  17.958848 -21.479812  -6.021992   2.983606  -0.010203 -24.329586   0.002570   0.857885  -4.172782  16.684241 -43.463420   2.729598  -8.832640 135.965395  -0.023813   0.038585   1.914719  -4.936305   5.480170 -18.782887  -0.007029  -0.029359 -47.796922   5.037780   9.778563 107.109286   0.016084  -0.004374  -8.491294   7.306087  -2.655382   1.142075  -0.000248  -0.000222
 -2.756970   0.539459   4.691438 -40.940840 -14.320327  -7.464047  51.048719   0.134457  -1.533943 -10.318599  -1.211361  -0.706335   3.717215   2.283690   1.317681 -14.068612  13.161933 -18.318678 -29.123344  21.428323   5.922568   0.029277  52.557163  -0.014887   0.660205   5.608915 -12.785090  -9.846053 -14.641306  17.606051 -21.343370  -6.221056   3.166464  -0.012160 -23.284004   0.003182   0.695460  -3.909989  16.703040 -45.421507   3.264831  -8.891181 134.228935  -0.031042   0.044137   0.868245  -5.230729   5.480411 -17.387948  -0.001101  -0.030729 -46.368856   5.109688   9.919645 107.599565   0.016779  -0.003302  -8.882392   7.185645  -2.392574   1.149856  -0.000167  -0.000169
 -2.759064   0.538880   4.696597 -41.138896 -13.482573  -8.172020  51.243994   0.060762  -1.070386 -10.204408  -1.354583  -0.611485   3.597445   2.125442   1.440330 -14.237209  12.344580 -17.874374 -29.643760  20.525479   5.879145   0.026793  52.136146  -0.013468   0.475912   5.357566 -13.045898  -9.942196 -14.518493  17.278935 -21.213463  -6.419352   3.332296  -0.013631 -22.312979   0.003638   0.547304  -3.682497  16.710830 -47.297278   3.787070  -8.946285 132.595955  -0.037534   0.046997  -0.110633  -5.506823   5.475271 -16.119061   0.004047  -0.030526 -45.000534   5.175382  10.083547 108.068164   0.017378  -0.002407  -9.246109   7.071656  -2.148171   1.159662  -0.000088  -0.000122
 -2.760562   0.537616   4.701629 -41.399746 -12.973730  -8.681523  51.650445   0.200218  -0.842585 -10.202233  -1.513178  -0.734165   3.221922   2.011269   1.537560 -14.387405  11.442957 -17.469483 -30.469917  19.567119   5.727002   0.030612  51.380943  -0.016047   0.401006   5.413032 -13.187671 -10.329218 -14.580714  16.884939 -21.555460  -6.821353   3.336775  -0.014150 -21.016055   0.012890   0.544926  -3.642275  16.713305 -49.114783   4.799556  -9.068087 129.616347  -0.053471   0.062774  -1.225643  -5.799440   5.445701 -15.069201   0.005954  -0.030256 -43.856972   5.009655  10.325797 108.783817   0.016465  -0.000850 -12.008551   7.139222  -1.318367  -2.177366   0.009344  -0.008896
 -2.761752   0.535592   4.706791 -41.698119 -12.595650  -9.065535  52.072408   0.319509  -0.715999 -10.198042  -1.679943  -0.932448   2.865972   1.911245   1.613284 -14.573741  10.567213 -17.114105 -31.262335  18.634178   5.527439   0.033947  50.640773  -0.017798   0.290253   5.296935 -13.455419 -10.698089 -14.647178  16.500677 -21.883918  -7.191110   3.333748  -0.014924 -19.791738   0.019404   0.494975  -3.496810  16.790896 -50.775600   5.832961  -9.260904 126.130397  -0.067256   0.076797  -2.292926  -6.075542   5.407651 -14.099644   0.005581  -0.029067 -42.900545   4.947766  10.572381 109.740049   0.016160   0.000643 -14.501398   7.064446  -0.617612  -3.846050   0.012043  -0.009189
 -2.762786   0.532764   4.712152 -42.026700 -12.304473  -9.358599  52.474208   0.402499  -0.658231 -10.189628  -1.856962  -1.170975   2.540951   1.818580   1.678092 -14.766317   9.728787 -16.800786 -32.009818  17.752803   5.307381   0.036250  49.942206  -0.018680   0.168138   5.119140 -13.776712 -11.040826 -14.705965  16.126256 -22.190119  -7.530421   3.319106  -0.015625 -18.645892   0.023864   0.437335  -3.326361  16.861022 -52.281891   6.811551  -9.464376 122.584049  -0.076300   0.084112  -3.301773  -6.331798   5.366418 -13.204734   0.004206  -0.026956 -42.058413   4.958400  10.795429 110.811581   0.015887   0.001758 -16.786972   6.944907   0.011735  -4.908118   0.012525  -0.008030
 -2.763741   0.529119   4.717730 -42.385626 -12.075478  -9.588341  52.850872   0.454755  -0.644028 -10.181403  -2.040946  -1.432045   2.241509   1.731845   1.735408 -14.955465   8.933642 -16.523136 -32.712351  16.928095   5.077767   0.037622  49.288359  -0.018997   0.045884   4.930194 -14.118567 -11.357684 -14.759811  15.760689 -22.475069  -7.843427   3.292382  -0.016064 -17.575186   0.026838   0.379474  -3.153593  16.908735 -53.656568   7.725161  -9.645912 119.157578  -0.080876   0.085312  -4.249224  -6.569279   5.323718 -12.388007   0.002565  -0.024252 -41.300114   5.002009  10.990571 111.903187   0.015253   0.002457 -18.908913   6.800313   0.587310  -5.784561   0.012418  -0.006582
 -2.764647   0.524660   4.723545 -42.782784 -11.893483  -9.774355  53.205995   0.483065  -0.657474 -10.172638  -2.228052  -1.704444   1.963984   1.650564   1.786989 -15.137406   8.184430 -16.276972 -33.372063  16.160352   4.844467   0.038228  48.678253  -0.018977  -0.072522   4.748214 -14.468612 -11.649826 -14.811113  15.404798 -22.740268  -8.133521   3.254859  -0.016158 -16.575435   0.028699   0.323344  -2.985159  16.933772 -54.920262   8.576377  -9.794425 115.919452  -0.081664   0.082325  -5.136475  -6.789470   5.280437 -11.646445   0.000971  -0.021328 -40.613509   5.054992  11.161301 112.960256   0.014198   0.002819 -20.892382   6.640189   1.118350  -6.651913   0.012305  -0.005101
